<svg width="38" height="38" viewBox="0 0 38 38" fill="none" xmlns="http://www.w3.org/2000/svg">
<path fill-rule="evenodd" clip-rule="evenodd" d="M0.666748 19C0.666748 29.1252 8.87486 37.3333 19.0001 37.3333C29.1253 37.3333 37.3334 29.1252 37.3334 19C37.3334 8.87474 29.1253 0.666626 19.0001 0.666626C8.87486 0.666626 0.666748 8.87474 0.666748 19ZM34.0001 19C34.0001 27.2842 27.2844 34 19.0001 34C10.7158 34 4.00008 27.2842 4.00008 19C4.00008 10.7157 10.7158 3.99996 19.0001 3.99996C27.2844 3.99996 34.0001 10.7157 34.0001 19ZM20.6728 22.3305H22.3383V25.6639H15.6717V22.3305H17.3383V18.9972H15.6717V15.6639H20.6728V22.3305ZM20.6678 12.3305C20.6678 13.251 19.9214 13.9972 19.0006 13.9972C18.0799 13.9972 17.3334 13.251 17.3334 12.3305C17.3334 11.4101 18.0799 10.6639 19.0006 10.6639C19.9214 10.6639 20.6678 11.4101 20.6678 12.3305Z" fill="#376FFF"/>
</svg>
